# xmcd
#
# Track frame offsets: 
#        150
#        12698
#        31087
#        43380
#        60846
#        75425
#        89990
#        112846
#        120752
#        136025
#        150356
#
# Disc length: 2220 seconds
#
# Revision: 0
# Processed by: cddbd v1.5.2PL0 Copyright (c) Steve Scherf et al.
# Submitted via: ExactAudioCopy v0.99pb4
#
DISCID=7808aa0b
DTITLE=Highway Child - On The Old Kings Road
DYEAR=2008
DGENRE=Rock
TTITLE0=Lonelytime Blues
TTITLE1=Change Yourself
TTITLE2=Branded A Fool
TTITLE3=Highclass Bitch
TTITLE4=Gold
TTITLE5=High
TTITLE6=Lovin' Lovin'
TTITLE7=
TTITLE8=Love For Sale
TTITLE9=Just Like You
TTITLE10=Highway Child
EXTD=
EXTT0=
EXTT1=
EXTT2=
EXTT3=
EXTT4=
EXTT5=
EXTT6=
EXTT7=
EXTT8=
EXTT9=
EXTT10=
PLAYORDER=
